SplineFontDB: 3.2
FontName: m51-Regular
FullName: m51 Regular
FamilyName: m51
Weight: Regular
Copyright: 
Version: 
ItalicAngle: 0
UnderlinePosition: -150
UnderlineWidth: 50
Ascent: 750
Descent: 250
InvalidEm: 0
sfntRevision: 0x00010000
LayerCount: 2
Layer: 0 0 "Back" 1
Layer: 1 0 "Fore" 0
XUID: [1021 731 -2074760495 3092]
StyleMap: 0x0040
FSType: 0
OS2Version: 0
OS2_WeightWidthSlopeOnly: 0
OS2_UseTypoMetrics: 0
CreationTime: 1229875379
ModificationTime: 1715449866
PfmFamily: 33
TTFWeight: 500
TTFWidth: 5
LineGap: 0
VLineGap: 0
Panose: 2 11 6 9 3 4 3 2 2 0
OS2TypoAscent: 0
OS2TypoAOffset: 1
OS2TypoDescent: 0
OS2TypoDOffset: 1
OS2TypoLinegap: 0
OS2WinAscent: 150
OS2WinAOffset: 1
OS2WinDescent: 50
OS2WinDOffset: 1
HheadAscent: 150
HheadAOffset: 1
HheadDescent: -50
HheadDOffset: 1
OS2CapHeight: 700
OS2XHeight: 480
OS2Vendor: '    '
OS2CodePages: 600001df.ffdf0000
OS2UnicodeRanges: e60022ff.d200f9fb.02000028.00000000
MarkAttachClasses: 1
DEI: 91125
LangName: 1033 "" "" "" "" "" "1" "" "" "" "Robi Ch8n"
DesignSize: 160
Encoding: UnicodeBmp
Compacted: 1
UnicodeInterp: none
NameList: AGL For New Fonts
DisplaySize: -36
AntiAlias: 1
FitToEm: 0
WinInfo: 0 51 20
BeginPrivate: 5
BlueValues 53 [-10 0 15 25 262 270 392 400 472 480 668 680 692 700]
StdVW 5 [150]
StemSnapH 12 [80 100 110]
StemSnapV 5 [150]
ForceBold 4 true
EndPrivate
TeXData: 1 16777216 0 629146 314573 209715 503316 1048576 209715 783286 444596 497025 792723 393216 433062 380633 303038 157286 324010 404750 52429 2506097 1059062 262144
BeginChars: 65536 95

StartChar: exclam
Encoding: 33 33 1
Width: 600
GlyphClass: 2
Flags: W
HStem: 0 150<200 400>
VStem: 200 200<0 150> 220 160<260 750>
LayerCount: 2
Fore
SplineSet
220 750 m 1xa0
 380 750 l 1
 380 260 l 1
 220 260 l 1
 220 750 l 1xa0
200 150 m 1xc0
 400 150 l 1
 400 0 l 1
 200 0 l 1
 200 150 l 1xc0
EndSplineSet
Validated: 1
EndChar

StartChar: quotedbl
Encoding: 34 34 2
Width: 600
GlyphClass: 2
Flags: W
HStem: 500 250<100 250 350 500>
VStem: 100 150<500 750> 350 150<500 750>
LayerCount: 2
Fore
SplineSet
500 750 m 1
 500 500 l 1
 350 500 l 1
 350 750 l 1
 500 750 l 1
250 750 m 1
 250 500 l 1
 100 500 l 1
 100 750 l 1
 250 750 l 1
EndSplineSet
Validated: 1
EndChar

StartChar: numbersign
Encoding: 35 35 3
Width: 600
GlyphClass: 2
Flags: W
HStem: 215 80<55 140 250 350 460 545> 435 80<55 140 250 350 460 545>
VStem: 140 110<85 215 295 435 515 650> 350 110<85 215 295 435 515 650>
LayerCount: 2
Fore
SplineSet
250 650 m 1
 250 515 l 1
 350 515 l 1
 350 650 l 1
 461 650 l 1
 460 515 l 1
 545 515 l 1
 545 435 l 1
 460 435 l 1
 460 295 l 1
 545 295 l 1
 545 215 l 1
 460 215 l 1
 460 85 l 1
 350 85 l 1
 350 215 l 1
 250 215 l 1
 250 85 l 1
 140 85 l 1
 140 215 l 1
 55 215 l 1
 55 295 l 1
 140 295 l 1
 140 435 l 1
 55 435 l 1
 55 515 l 1
 140 515 l 1
 140 650 l 1
 250 650 l 1
350 435 m 1
 250 435 l 1
 250 295 l 1
 350 295 l 1
 350 435 l 1
EndSplineSet
Validated: 1
EndChar

StartChar: dollar
Encoding: 36 36 4
Width: 600
GlyphClass: 2
Flags: W
HStem: 0 100<114 219> 515 100<380 465>
VStem: 105 150<384 515> 219 146<-135 0> 235 145<615 750> 345 150<100 245>
LayerCount: 2
Fore
SplineSet
160 329 m 1xc4
 105 384 l 1
 105 540 l 1xe4
 180 615 l 1
 235 615 l 1
 235 750 l 1
 380 750 l 1
 380 615 l 1xc8
 465 615 l 1
 465 515 l 1
 255 515 l 1
 255 384 l 1
 440 300 l 1
 495 245 l 1
 495 75 l 1xe4
 420 0 l 1
 365 0 l 1
 365 -135 l 1
 219 -135 l 1
 219 0 l 1xd0
 114 0 l 1
 114 100 l 1
 345 100 l 1
 345 247 l 1
 160 329 l 1xc4
EndSplineSet
Validated: 1
EndChar

StartChar: percent
Encoding: 37 37 5
Width: 600
GlyphClass: 2
Flags: W
HStem: 0 21G<350 470>
LayerCount: 2
Fore
SplineSet
450 0 m 1
 370 0 l 1
 310 60 l 1
 310 140 l 1
 370 200 l 1
 450 200 l 1
 510 140 l 1
 510 60 l 1
 450 0 l 1
220 450 m 1
 140 450 l 1
 80 510 l 1
 80 590 l 1
 140 650 l 1
 220 650 l 1
 280 590 l 1
 280 510 l 1
 220 450 l 1
226 50 m 1
 106 50 l 1
 361 600 l 1
 481 600 l 1
 226 50 l 1
EndSplineSet
Validated: 1
EndChar

StartChar: ampersand
Encoding: 38 38 6
Width: 600
GlyphClass: 2
Flags: W
HStem: 0 100<270 320> 610 100<245 335>
VStem: 100 125<488 590> 355 125<488 590>
LayerCount: 2
Fore
SplineSet
330 370 m 1
 185 225 l 1
 185 185 l 1
 270 100 l 1
 320 100 l 1
 400 180 l 1
 400 250 l 1
 550 250 l 1
 550 150 l 1
 390 0 l 1
 200 0 l 1
 60 140 l 1
 60 270 l 1
 180 390 l 1
 100 470 l 1
 100 630 l 1
 180 710 l 1
 400 710 l 1
 480 630 l 1
 480 470 l 1
 380 370 l 1
 330 370 l 1
335 468 m 1
 355 488 l 1
 355 590 l 1
 335 610 l 1
 245 610 l 1
 225 590 l 1
 225 488 l 1
 245 468 l 1
 335 468 l 1
EndSplineSet
Validated: 1
EndChar

StartChar: quotesingle
Encoding: 39 39 7
Width: 600
GlyphClass: 2
Flags: W
VStem: 210 180<365 725>
LayerCount: 2
Fore
SplineSet
390 725 m 5
 390 365 l 5
 210 365 l 5
 210 725 l 5
 390 725 l 5
EndSplineSet
Validated: 1
EndChar

StartChar: parenleft
Encoding: 40 40 8
Width: 600
GlyphClass: 2
Flags: W
VStem: 70 120<90 460>
LayerCount: 2
Fore
SplineSet
380 750 m 1
 245 620 l 1
 190 460 l 1
 190 90 l 5
 245 -70 l 5
 380 -200 l 1
 210 -200 l 1
 115 -80 l 5
 70 50 l 5
 70 500 l 1
 115 630 l 1
 210 750 l 1
 380 750 l 1
EndSplineSet
Validated: 1
EndChar

StartChar: parenright
Encoding: 41 41 9
Width: 600
GlyphClass: 2
Flags: W
VStem: 410 120<90 460>
LayerCount: 2
Fore
SplineSet
220 750 m 1
 390 750 l 1
 485 630 l 1
 530 500 l 1
 530 50 l 5
 485 -80 l 5
 390 -200 l 1
 220 -200 l 1
 355 -70 l 5
 410 90 l 5
 410 460 l 1
 355 620 l 1
 220 750 l 1
EndSplineSet
Validated: 1
EndChar

StartChar: asterisk
Encoding: 42 42 10
Width: 600
GlyphClass: 2
Flags: W
VStem: 245 110<200 380 520 700>
LayerCount: 2
Fore
SplineSet
550 513 m 1
 376 450 l 1
 550 376 l 1
 475 277 l 1
 355 380 l 1
 355 200 l 1
 245 200 l 1
 245 380 l 1
 115 287 l 1
 50 386 l 1
 224 450 l 1
 50 513 l 1
 115 625 l 1
 245 520 l 1
 245 700 l 1
 355 700 l 1
 355 520 l 1
 485 625 l 1
 550 513 l 1
EndSplineSet
Validated: 1
EndChar

StartChar: plus
Encoding: 43 43 11
Width: 600
GlyphClass: 2
Flags: W
HStem: 200 100<70 240 360 530> 460 20G<240 360>
VStem: 240 120<20 200 300 480>
LayerCount: 2
Fore
SplineSet
360 480 m 1
 360 300 l 1
 530 300 l 1
 530 200 l 1
 360 200 l 1
 360 20 l 1
 240 20 l 1
 240 200 l 1
 70 200 l 1
 70 300 l 1
 240 300 l 1
 240 480 l 1
 360 480 l 1
EndSplineSet
Validated: 1
EndChar

StartChar: comma
Encoding: 44 44 12
Width: 600
GlyphClass: 2
Flags: W
HStem: 40 110<212 310> 50 100<170 268>
VStem: 300 150<-140 -14> 310 140<-86 40>
LayerCount: 2
Fore
SplineSet
170 50 m 1x50
 170 150 l 1
 450 150 l 1x50
 450 -140 l 5
 300 -140 l 5x60
 310 40 l 1x90
 170 50 l 1x50
EndSplineSet
Validated: 1
EndChar

StartChar: hyphen
Encoding: 45 45 13
Width: 600
GlyphClass: 2
Flags: W
HStem: 200 100<80 520>
LayerCount: 2
Fore
SplineSet
80 300 m 25
 520 300 l 25
 520 200 l 25
 80 200 l 25
 80 300 l 25
EndSplineSet
Validated: 1
EndChar

StartChar: period
Encoding: 46 46 14
Width: 600
GlyphClass: 2
Flags: W
HStem: 0 175<200 400>
VStem: 200 200<0 175>
LayerCount: 2
Fore
SplineSet
200 175 m 5
 400 175 l 5
 400 0 l 5
 200 0 l 5
 200 175 l 5
EndSplineSet
Validated: 1
EndChar

StartChar: slash
Encoding: 47 47 15
Width: 600
GlyphClass: 2
Flags: W
HStem: -125 125<10 70> 625 125<460 520>
LayerCount: 2
Fore
SplineSet
380 750 m 5
 520 750 l 5
 520 625 l 5
 460 625 l 5
 150 -125 l 5
 10 -125 l 5
 10 0 l 5
 70 0 l 5
 380 750 l 5
EndSplineSet
Validated: 1
EndChar

StartChar: zero
Encoding: 48 48 16
Width: 600
GlyphClass: 2
Flags: W
HStem: 0 110<220 380> 570 110<220 380>
VStem: 70 150<110 280 400 570> 380 150<110 280 400 570>
LayerCount: 2
Fore
SplineSet
170 0 m 1
 70 80 l 1
 70 330 l 1
 220 280 l 1
 220 110 l 1
 380 110 l 1
 380 280 l 1
 530 330 l 1
 530 80 l 1
 430 0 l 1
 170 0 l 1
380 570 m 1
 220 570 l 1
 220 400 l 1
 70 350 l 1
 70 600 l 1
 170 680 l 1
 430 680 l 1
 530 600 l 1
 530 350 l 1
 380 400 l 1
 380 570 l 1
EndSplineSet
Validated: 1
EndChar

StartChar: one
Encoding: 49 49 17
Width: 600
GlyphClass: 2
Flags: W
HStem: 0 21G<330 480> 660 20G<310 480>
VStem: 330 150<0 470>
LayerCount: 2
Fore
SplineSet
180 530 m 5
 330 680 l 5
 480 680 l 5
 480 0 l 1
 330 0 l 1
 330 470 l 5
 180 470 l 5
 180 530 l 5
EndSplineSet
Validated: 1
EndChar

StartChar: two
Encoding: 50 50 18
Width: 600
GlyphClass: 2
Flags: W
HStem: 0 115<230 470> 295 115<230 380> 565 115<130 380>
VStem: 80 150<115 295> 380 150<410 565>
LayerCount: 2
Fore
SplineSet
230 115 m 1
 470 115 l 1
 470 0 l 1
 215 0 l 1
 80 100 l 1
 80 304 l 1
 210 410 l 1
 380 410 l 1
 380 565 l 1
 130 565 l 1
 130 680 l 1
 395 680 l 1
 530 580 l 1
 530 395 l 1
 400 295 l 1
 230 295 l 1
 230 115 l 1
EndSplineSet
Validated: 1
EndChar

StartChar: three
Encoding: 51 51 19
Width: 600
GlyphClass: 2
Flags: W
HStem: 0 110<100 340> 300 110<100 350> 570 110<100 340>
VStem: 370 150<140 270 440 540>
LayerCount: 2
Fore
SplineSet
520 440 m 1
 440 360 l 1
 440 350 l 1
 520 270 l 1
 520 102 l 1
 388 0 l 1
 100 0 l 1
 100 110 l 1
 340 110 l 1
 370 140 l 1
 370 280 l 1
 350 300 l 1
 100 300 l 1
 100 410 l 1
 350 410 l 1
 370 430 l 1
 370 540 l 1
 340 570 l 1
 100 570 l 1
 100 680 l 1
 388 680 l 1
 520 578 l 1
 520 440 l 1
EndSplineSet
Validated: 1
EndChar

StartChar: four
Encoding: 52 52 20
Width: 600
GlyphClass: 2
Flags: W
HStem: 0 21G<380 530> 290 104<220 380> 660 20G<70 220 380 530>
VStem: 70 150<394 660> 380 150<0 290 394 660>
LayerCount: 2
Fore
SplineSet
380 290 m 1
 150 290 l 1
 150 370 l 1
 70 370 l 1
 70 660 l 1
 220 680 l 5
 220 394 l 1
 380 394 l 1
 380 680 l 1
 530 660 l 1
 530 0 l 1
 380 0 l 1
 380 290 l 1
EndSplineSet
Validated: 1
EndChar

StartChar: five
Encoding: 53 53 21
Width: 600
GlyphClass: 2
Flags: W
HStem: 0 110<170 360> 300 110<270 355> 570 110<260 455>
VStem: 390 150<140 265>
LayerCount: 2
Fore
SplineSet
170 0 m 5
 170 110 l 5
 360 110 l 1
 390 140 l 1
 390 265 l 1
 355 300 l 1
 210 300 l 5
 70 440 l 5
 70 540 l 5
 210 680 l 5
 455 680 l 1
 455 570 l 1
 260 570 l 5
 220 530 l 5
 220 460 l 5
 270 410 l 5
 430 410 l 1
 540 300 l 1
 540 100 l 1
 410 0 l 1
 170 0 l 5
EndSplineSet
Validated: 1
EndChar

StartChar: six
Encoding: 54 54 22
Width: 600
GlyphClass: 2
Flags: W
HStem: 0 110<220 380> 300 110<220 380> 570 110<250 425>
VStem: 70 150<110 300 410 540> 380 150<110 300>
LayerCount: 2
Fore
SplineSet
380 110 m 1
 380 300 l 1
 220 300 l 1
 220 110 l 1
 380 110 l 1
530 300 m 1
 530 110 l 1
 430 0 l 1
 180 0 l 1
 70 110 l 1
 70 570 l 5
 180 680 l 5
 425 680 l 5
 425 570 l 5
 250 570 l 5
 220 540 l 5
 220 410 l 1
 420 410 l 1
 530 300 l 1
EndSplineSet
Validated: 1
EndChar

StartChar: seven
Encoding: 55 55 23
Width: 600
GlyphClass: 2
Flags: W
HStem: 0 21G<125 293.621> 570 110<70 365>
LayerCount: 2
Fore
SplineSet
285 0 m 1
 125 0 l 1
 365 528 l 1
 365 570 l 1
 70 570 l 1
 70 680 l 1
 435 680 l 1
 535 580 l 1
 285 0 l 1
EndSplineSet
Validated: 1
EndChar

StartChar: eight
Encoding: 56 56 24
Width: 600
GlyphClass: 2
Flags: W
HStem: 0 100<220 380> 300 100<220 380> 580 100<220 380>
VStem: 70 150<100 250 450 580> 380 150<100 250 450 580>
LayerCount: 2
Fore
SplineSet
380 300 m 1
 220 300 l 1
 220 100 l 1
 380 100 l 1
 380 300 l 1
450 370 m 1
 450 330 l 1
 530 250 l 1
 530 100 l 5
 430 0 l 1
 170 0 l 1
 70 100 l 5
 70 250 l 1
 150 330 l 1
 150 370 l 1
 70 450 l 1
 70 580 l 1
 170 680 l 1
 430 680 l 1
 530 580 l 1
 530 450 l 1
 450 370 l 1
380 400 m 1
 380 580 l 1
 220 580 l 1
 220 400 l 1
 380 400 l 1
EndSplineSet
Validated: 1
EndChar

StartChar: nine
Encoding: 57 57 25
Width: 600
GlyphClass: 2
Flags: W
HStem: 0 110<110 340> 295 110<220 390> 570 110<220 390>
VStem: 70 150<405 570> 390 140<160 295 405 570>
LayerCount: 2
Fore
SplineSet
220 570 m 5
 220 405 l 5
 390 405 l 5
 390 570 l 5
 220 570 l 5
420 0 m 1
 110 0 l 1
 110 110 l 1
 340 110 l 1
 390 160 l 1
 390 295 l 5
 180 295 l 5
 70 405 l 5
 70 570 l 5
 180 680 l 5
 420 680 l 5
 530 570 l 5
 530 110 l 1
 420 0 l 1
EndSplineSet
Validated: 1
EndChar

StartChar: colon
Encoding: 58 58 26
Width: 600
GlyphClass: 2
Flags: W
HStem: 40 170<215 385> 290 180<215 385>
VStem: 215 170<40 210 290 470>
LayerCount: 2
Fore
SplineSet
215 470 m 5
 385 470 l 1
 385 290 l 1
 215 290 l 1
 215 470 l 5
215 210 m 1
 385 210 l 1
 385 40 l 1
 215 40 l 1
 215 210 l 1
EndSplineSet
Validated: 1
EndChar

StartChar: semicolon
Encoding: 59 59 27
Width: 600
GlyphClass: 2
Flags: W
HStem: -80 125<120 220> 330 150<170 370>
VStem: 170 200<330 480> 220 150<45 190>
LayerCount: 2
Fore
SplineSet
220 190 m 5xd0
 370 190 l 5
 370 20 l 5
 270 -80 l 5
 120 -80 l 5
 120 45 l 5
 220 45 l 5
 220 190 l 5xd0
170 480 m 5xe0
 370 480 l 5
 370 330 l 5
 170 330 l 5
 170 480 l 5xe0
EndSplineSet
Validated: 1
EndChar

StartChar: less
Encoding: 60 60 28
Width: 600
GlyphClass: 2
Flags: W
HStem: 0 21G<289.556 480>
VStem: 80 130<160 340>
LayerCount: 2
Fore
SplineSet
480 500 m 1
 210 250 l 5
 480 0 l 1
 310 0 l 1
 80 225 l 1
 80 275 l 1
 310 500 l 1
 480 500 l 1
EndSplineSet
Validated: 1
EndChar

StartChar: equal
Encoding: 61 61 29
Width: 600
GlyphClass: 2
Flags: W
HStem: 100 100<60 540> 300 100<60 540>
LayerCount: 2
Fore
SplineSet
60 200 m 1
 540 200 l 1
 540 100 l 1
 60 100 l 1
 60 200 l 1
60 400 m 1
 540 400 l 1
 540 300 l 1
 60 300 l 1
 60 400 l 1
EndSplineSet
Validated: 1
EndChar

StartChar: greater
Encoding: 62 62 30
Width: 600
GlyphClass: 2
Flags: W
HStem: 0 21G<120 310.444>
VStem: 390 130<160 340>
LayerCount: 2
Fore
SplineSet
120 500 m 1
 290 500 l 1
 520 275 l 1
 520 225 l 1
 290 0 l 1
 120 0 l 1
 390 250 l 1
 120 500 l 1
EndSplineSet
Validated: 1
EndChar

StartChar: question
Encoding: 63 63 31
Width: 600
GlyphClass: 2
Flags: W
HStem: 0 150<160 360> 640 110<100 260>
VStem: 160 200<0 150> 160 150<205 280> 340 140<475 560>
LayerCount: 2
Fore
SplineSet
310 205 m 1xd8
 160 205 l 1
 160 295 l 1
 340 475 l 1
 340 560 l 1
 260 640 l 1
 100 640 l 1
 100 750 l 1
 320 750 l 1
 480 590 l 1
 480 450 l 1
 310 280 l 1
 310 205 l 1xd8
160 150 m 1xe0
 360 150 l 5
 360 0 l 5
 160 0 l 1
 160 150 l 1xe0
EndSplineSet
Validated: 1
EndChar

StartChar: at
Encoding: 64 64 32
Width: 600
GlyphClass: 2
Flags: W
HStem: 0 100<250 470> 600 100<250 350>
VStem: 80 150<120 580> 370 150<250 580>
LayerCount: 2
Fore
SplineSet
470 0 m 1
 180 0 l 1
 80 100 l 1
 80 620 l 1
 160 700 l 1
 440 700 l 1
 520 620 l 1
 520 250 l 1
 370 250 l 1
 370 580 l 1
 350 600 l 1
 250 600 l 1
 230 580 l 1
 230 120 l 1
 250 100 l 1
 470 100 l 1
 470 0 l 1
EndSplineSet
Validated: 1
EndChar

StartChar: A
Encoding: 65 65 33
Width: 600
GlyphClass: 2
Flags: W
HStem: 0 21G<60 210 390 540> 230 80<210 390> 680 20G<270 330>
VStem: 60 150<0 230 310 460> 390 150<0 230 310 460>
LayerCount: 2
Fore
SplineSet
540 0 m 25
 390 0 l 25
 390 230 l 25
 210 230 l 25
 210 0 l 25
 60 0 l 25
 60 470 l 25
 290 700 l 29
 310 700 l 25
 540 470 l 25
 540 0 l 25
390 460 m 25
 300 550 l 25
 210 460 l 25
 210 310 l 25
 390 310 l 25
 390 460 l 25
EndSplineSet
Validated: 1
EndChar

StartChar: B
Encoding: 66 66 34
Width: 600
GlyphClass: 2
Flags: W
HStem: 0 100<210 350> 330 80<210 350> 580 100<210 360>
VStem: 60 150<100 330 410 580> 400 150<150 280 460 540>
LayerCount: 2
Fore
SplineSet
360 580 m 1
 210 580 l 1
 210 410 l 1
 350 410 l 1
 400 460 l 1
 400 540 l 1
 360 580 l 1
470 310 m 1
 550 310 l 1
 550 120 l 1
 430 0 l 1
 60 0 l 1
 60 680 l 1
 430 680 l 1
 550 560 l 1
 550 430 l 1
 470 430 l 1
 470 310 l 1
210 330 m 1
 210 100 l 1
 350 100 l 1
 400 150 l 1
 400 280 l 1
 350 330 l 1
 210 330 l 1
EndSplineSet
Validated: 1
EndChar

StartChar: C
Encoding: 67 67 35
Width: 600
GlyphClass: 2
Flags: W
HStem: 0 110<285 540> 570 110<285 530>
VStem: 60 150<185 495>
LayerCount: 2
Fore
SplineSet
540 0 m 1
 210 0 l 1
 60 150 l 1
 60 530 l 5
 210 680 l 5
 530 680 l 5
 530 570 l 5
 285 570 l 5
 210 495 l 5
 210 185 l 1
 285 110 l 1
 540 110 l 1
 540 0 l 1
EndSplineSet
Validated: 1
EndChar

StartChar: D
Encoding: 68 68 36
Width: 600
GlyphClass: 2
Flags: W
HStem: 0 100<210 320> 580 100<210 320>
VStem: 60 150<100 580> 410 150<240 440>
LayerCount: 2
Fore
SplineSet
60 680 m 5
 400 680 l 5
 560 450 l 5
 560 230 l 1
 400 0 l 1
 60 0 l 1
 60 680 l 5
210 100 m 1
 320 100 l 1
 410 240 l 1
 410 440 l 5
 320 580 l 5
 210 580 l 5
 210 100 l 1
EndSplineSet
Validated: 1
EndChar

StartChar: E
Encoding: 69 69 37
Width: 600
GlyphClass: 2
Flags: W
HStem: 0 100<210 530> 310 100<210 510> 580 100<210 525>
VStem: 60 150<100 310 410 580>
LayerCount: 2
Fore
SplineSet
80 680 m 29
 525 680 l 29
 525 580 l 29
 210 580 l 29
 210 410 l 29
 510 410 l 29
 510 310 l 29
 210 310 l 29
 210 100 l 25
 530 100 l 25
 530 0 l 25
 80 0 l 25
 60 20 l 25
 60 660 l 29
 80 680 l 29
EndSplineSet
Validated: 1
EndChar

StartChar: F
Encoding: 70 70 38
Width: 600
GlyphClass: 2
Flags: W
HStem: 0 21G<60 210> 300 100<210 430> 580 100<210 540>
VStem: 60 150<0 300 400 580>
LayerCount: 2
Fore
SplineSet
540 680 m 5
 540 580 l 5
 210 580 l 1
 210 400 l 1
 430 400 l 1
 430 300 l 1
 210 300 l 1
 210 0 l 1
 60 0 l 1
 60 680 l 1
 540 680 l 5
EndSplineSet
Validated: 1
EndChar

StartChar: G
Encoding: 71 71 39
Width: 600
GlyphClass: 2
Flags: W
HStem: 0 110<280 420> 275 100<320 420> 560 120<290 512>
VStem: 50 150<190 470> 420 120<110 275>
LayerCount: 2
Fore
SplineSet
210 0 m 1
 50 160 l 25
 50 500 l 25
 230 680 l 25
 512 680 l 25
 512 560 l 25
 290 560 l 25
 200 470 l 25
 200 190 l 25
 280 110 l 25
 420 110 l 25
 420 275 l 25
 320 275 l 25
 320 375 l 25
 540 375 l 25
 540 0 l 1
 210 0 l 1
EndSplineSet
Validated: 1
EndChar

StartChar: H
Encoding: 72 72 40
Width: 600
GlyphClass: 2
Flags: W
HStem: 0 21G<60 210 390 540> 310 80<210 390> 660 20G<60 210 390 540>
VStem: 60 150<0 310 390 680> 390 150<0 310 390 680>
LayerCount: 2
Fore
SplineSet
60 680 m 1
 210 680 l 1
 210 390 l 1
 390 390 l 1
 390 680 l 1
 540 680 l 1
 540 0 l 1
 390 0 l 1
 390 310 l 1
 210 310 l 1
 210 0 l 1
 60 0 l 1
 60 680 l 1
EndSplineSet
Validated: 1
EndChar

StartChar: I
Encoding: 73 73 41
Width: 600
GlyphClass: 2
Flags: W
HStem: 0 85<60 225 375 540> 595 85<60 225 375 540>
VStem: 225 150<85 595>
LayerCount: 2
Fore
SplineSet
60 680 m 1
 540 680 l 1
 540 595 l 1
 375 595 l 1
 375 85 l 1
 540 85 l 1
 540 0 l 1
 60 0 l 1
 60 85 l 1
 225 85 l 1
 225 595 l 1
 60 595 l 1
 60 680 l 1
EndSplineSet
Validated: 1
EndChar

StartChar: J
Encoding: 74 74 42
Width: 600
GlyphClass: 2
Flags: W
HStem: 0 110<80 290> 580 100<150 370>
VStem: 370 150<190 580>
LayerCount: 2
Fore
SplineSet
370 580 m 5
 150 580 l 5
 150 680 l 5
 520 680 l 5
 520 150 l 1
 370 0 l 1
 80 0 l 1
 80 110 l 1
 290 110 l 1
 370 190 l 1
 370 580 l 5
EndSplineSet
Validated: 1
EndChar

StartChar: K
Encoding: 75 75 43
Width: 600
GlyphClass: 2
Flags: W
HStem: 0 21G<60 210 420 570> 660 20G<60 210 410.909 580>
VStem: 60 150<0 290 460 680>
LayerCount: 2
Fore
SplineSet
60 680 m 4
 210 680 l 4
 210 460 l 4
 220 460 l 5
 430 680 l 5
 580 680 l 4
 580 641 l 4
 320 391 l 4
 320 380 l 0
 570 50 l 0
 570 0 l 0
 420 0 l 0
 420 20 l 0
 230 290 l 0
 210 290 l 0
 210 0 l 0
 60 0 l 0
 60 680 l 4
EndSplineSet
Validated: 1
EndChar

StartChar: L
Encoding: 76 76 44
Width: 600
GlyphClass: 2
Flags: W
HStem: 0 110<245 550> 660 20G<95 245>
VStem: 95 150<110 680>
LayerCount: 2
Fore
SplineSet
95 680 m 5
 245 680 l 5
 245 110 l 1
 550 110 l 1
 550 0 l 1
 155 0 l 1
 95 60 l 1
 95 680 l 5
EndSplineSet
Validated: 1
EndChar

StartChar: M
Encoding: 77 77 45
Width: 600
GlyphClass: 2
Flags: W
HStem: 0 21G<50 200 400 550> 660 20G<50 129 471 550>
VStem: 50 150<0 420> 270 60<150 340> 400 150<0 420>
CounterMasks: 1 38
LayerCount: 2
Fore
SplineSet
50 680 m 25
 110 680 l 25
 300 480 l 25
 490 680 l 25
 550 680 l 25
 550 0 l 25
 400 0 l 25
 400 420 l 1
 330 340 l 1
 330 150 l 1
 270 150 l 1
 270 340 l 1
 200 420 l 1
 200 0 l 25
 50 0 l 25
 50 680 l 25
EndSplineSet
Validated: 1
EndChar

StartChar: N
Encoding: 78 78 46
Width: 600
GlyphClass: 2
Flags: W
HStem: 0 21G<60 210 390 540> 660 20G<60 210 390 540>
VStem: 60 150<0 340 500 680> 390 150<0 140 300 680>
LayerCount: 2
Fore
SplineSet
210 680 m 5
 210 500 l 1
 390 300 l 1
 390 680 l 5
 540 680 l 5
 540 0 l 1
 390 0 l 1
 390 140 l 1
 210 340 l 1
 210 0 l 1
 60 0 l 1
 60 680 l 5
 210 680 l 5
EndSplineSet
Validated: 1
EndChar

StartChar: O
Encoding: 79 79 47
Width: 600
GlyphClass: 2
Flags: W
HStem: 0 100<260 340> 580 100<260 340>
VStem: 60 150<160 520> 390 150<160 520>
LayerCount: 2
Fore
SplineSet
260 580 m 1
 220 550 l 1
 210 520 l 1
 210 160 l 1
 220 130 l 1
 260 100 l 1
 340 100 l 1
 380 130 l 1
 390 160 l 1
 390 520 l 1
 380 550 l 1
 340 580 l 1
 260 580 l 1
390 680 m 1
 490 620 l 1
 540 530 l 1
 540 150 l 1
 490 60 l 1
 390 0 l 1
 210 0 l 1
 110 60 l 1
 60 150 l 1
 60 530 l 1
 110 620 l 1
 210 680 l 1
 390 680 l 1
EndSplineSet
Validated: 1
EndChar

StartChar: P
Encoding: 80 80 48
Width: 600
GlyphClass: 2
Flags: W
HStem: 0 21G<60 210> 210 100<210 330> 580 100<210 330>
VStem: 60 150<0 210 310 580> 390 150<370 520>
LayerCount: 2
Fore
SplineSet
540 350 m 1
 400 210 l 1
 210 210 l 1
 210 0 l 1
 60 0 l 1
 60 680 l 1
 400 680 l 1
 540 540 l 1
 540 350 l 1
390 370 m 1
 390 520 l 1
 330 580 l 1
 210 580 l 1
 210 310 l 1
 330 310 l 1
 390 370 l 1
EndSplineSet
Validated: 1
EndChar

StartChar: Q
Encoding: 81 81 49
Width: 600
GlyphClass: 2
Flags: W
HStem: 0 100<280 320> 580 100<250 350>
VStem: 60 150<170 540> 390 150<170 530>
LayerCount: 2
Fore
SplineSet
250 580 m 5
 210 540 l 5
 210 170 l 1
 280 100 l 1
 320 100 l 1
 390 170 l 1
 390 530 l 5
 350 580 l 5
 250 580 l 5
410 680 m 5
 540 550 l 5
 540 170 l 1
 446 76 l 1
 592 -58 l 1
 502 -131 l 1
 370 0 l 1
 210 0 l 1
 60 150 l 1
 60 560 l 5
 180 680 l 5
 410 680 l 5
EndSplineSet
Validated: 1
EndChar

StartChar: R
Encoding: 82 82 50
Width: 600
GlyphClass: 2
Flags: W
HStem: 0 21G<70 220 420 570> 250 80<220 270> 580 100<220 350>
VStem: 70 150<0 250 330 580> 410 140<410 520> 420 150<0 100>
LayerCount: 2
Fore
SplineSet
220 250 m 25xf4
 220 0 l 25
 70 0 l 25
 70 680 l 29
 410 680 l 29
 550 540 l 29
 550 380 l 25xf8
 430 260 l 25
 570 120 l 25
 570 0 l 25
 420 0 l 1
 420 100 l 1
 270 250 l 1
 220 250 l 25xf4
330 330 m 25
 410 410 l 25
 410 520 l 29
 350 580 l 29
 220 580 l 29
 220 330 l 25
 330 330 l 25
EndSplineSet
Validated: 1
EndChar

StartChar: S
Encoding: 83 83 51
Width: 600
GlyphClass: 2
Flags: W
HStem: 0 110<70 360> 305 110<270 330> 570 110<240 530>
VStem: 70 150<465 550> 380 150<130 255>
LayerCount: 2
Fore
SplineSet
530 680 m 1
 530 570 l 1
 240 570 l 1
 220 550 l 1
 220 465 l 1
 270 415 l 1
 410 415 l 1
 530 295 l 1
 530 100 l 1
 430 0 l 1
 70 0 l 1
 70 110 l 1
 360 110 l 1
 380 130 l 1
 380 255 l 1
 330 305 l 1
 190 305 l 1
 70 425 l 1
 70 580 l 1
 170 680 l 1
 530 680 l 1
EndSplineSet
Validated: 1
EndChar

StartChar: T
Encoding: 84 84 52
Width: 600
GlyphClass: 2
Flags: W
HStem: 0 21G<225 375> 580 100<50 225 375 550>
VStem: 225 150<0 580>
LayerCount: 2
Fore
SplineSet
550 680 m 1
 550 580 l 1
 375 580 l 1
 375 0 l 1
 225 0 l 1
 225 580 l 1
 50 580 l 1
 50 680 l 1
 550 680 l 1
EndSplineSet
Validated: 1
EndChar

StartChar: U
Encoding: 85 85 53
Width: 600
GlyphClass: 2
Flags: W
HStem: 0 100<210 390> 660 20G<60 210 390 540>
VStem: 60 150<100 680> 390 150<100 680>
LayerCount: 2
Fore
SplineSet
540 100 m 1
 440 0 l 1
 160 0 l 1
 60 100 l 1
 60 680 l 5
 210 680 l 5
 210 100 l 1
 390 100 l 1
 390 680 l 5
 540 680 l 5
 540 100 l 1
EndSplineSet
Validated: 1
EndChar

StartChar: V
Encoding: 86 86 54
Width: 600
GlyphClass: 2
Flags: W
HStem: 0 21G<240 360> 660 20G<60 215 385 540>
VStem: 60 155<200 680> 385 155<200 680>
LayerCount: 2
Fore
SplineSet
540 200 m 1
 340 0 l 1
 260 0 l 1
 60 200 l 1
 60 680 l 5
 215 680 l 5
 215 200 l 1
 275 140 l 1
 325 140 l 1
 385 200 l 1
 385 680 l 5
 540 680 l 5
 540 200 l 1
EndSplineSet
Validated: 1
EndChar

StartChar: W
Encoding: 87 87 55
Width: 600
GlyphClass: 2
Flags: W
HStem: 0 100<200 260 340 400> 660 20G<50 200 400 550>
VStem: 50 150<100 680> 260 80<100 450> 400 150<100 680>
CounterMasks: 1 38
LayerCount: 2
Fore
SplineSet
50 680 m 1
 200 680 l 1
 200 100 l 1
 260 100 l 1
 260 450 l 1
 340 450 l 1
 340 100 l 1
 400 100 l 1
 400 680 l 1
 550 680 l 1
 550 80 l 1
 470 80 l 1
 470 0 l 1
 130 0 l 1
 130 80 l 1
 50 80 l 1
 50 680 l 1
EndSplineSet
Validated: 1
EndChar

StartChar: X
Encoding: 88 88 56
Width: 600
GlyphClass: 2
Flags: W
HStem: 0 21G<60 210 390 540> 660 20G<60 210 390 540>
VStem: 60 150<0 155 595 680> 390 150<0 155 595 680>
LayerCount: 2
Fore
SplineSet
540 680 m 5
 540 565 l 5
 370 395 l 5
 370 345 l 5
 540 175 l 5
 540 0 l 1
 390 0 l 1
 390 155 l 5
 300 245 l 5
 210 155 l 5
 210 0 l 1
 60 0 l 1
 60 175 l 5
 230 345 l 5
 230 395 l 5
 60 565 l 5
 60 680 l 5
 210 680 l 5
 210 595 l 5
 300 495 l 5
 390 595 l 5
 390 680 l 5
 540 680 l 5
EndSplineSet
Validated: 1
EndChar

StartChar: Y
Encoding: 89 89 57
Width: 600
GlyphClass: 2
Flags: W
HStem: 0 21G<225 375> 660 20G<30 180 420 570>
VStem: 225 150<0 335>
LayerCount: 2
Fore
SplineSet
30 680 m 25
 180 680 l 25
 180 650 l 25
 300 450 l 25
 420 650 l 25
 420 680 l 25
 570 680 l 25
 570 630 l 25
 375 335 l 25
 375 0 l 25
 225 0 l 25
 225 335 l 25
 30 630 l 25
 30 680 l 25
  Spiro
    30 680 v
    180 680 v
    180 650 v
    300 450 v
    420 650 v
    420 680 v
    570 680 v
    570 630 v
    375 335 v
    375 0 v
    225 0 v
    225 335 v
    30 630 v
    0 0 z
  EndSpiro
EndSplineSet
Validated: 1
EndChar

StartChar: Z
Encoding: 90 90 58
Width: 600
GlyphClass: 2
Flags: W
HStem: 0 100<207 520> 550 100<60 373>
LayerCount: 2
Fore
SplineSet
60 650 m 5
 445 650 l 5
 445 600 l 5
 520 600 l 5
 520 500 l 5
 207 100 l 1
 520 100 l 1
 520 0 l 1
 135 0 l 1
 135 50 l 1
 60 50 l 1
 60 150 l 1
 373 550 l 5
 60 550 l 5
 60 650 l 5
EndSplineSet
Validated: 1
EndChar

StartChar: bracketleft
Encoding: 91 91 59
Width: 600
GlyphClass: 2
Flags: W
HStem: -250 100<200 400> 650 100<200 400>
VStem: 80 120<-150 650>
LayerCount: 2
Fore
SplineSet
80 750 m 1
 400 750 l 5
 400 650 l 5
 200 650 l 1
 200 -150 l 1
 400 -150 l 5
 400 -250 l 5
 80 -250 l 1
 80 750 l 1
EndSplineSet
Validated: 1
EndChar

StartChar: backslash
Encoding: 92 92 60
Width: 600
GlyphClass: 2
Flags: W
HStem: -125 125<530 590> 625 125<80 140>
LayerCount: 2
Fore
SplineSet
220 750 m 5
 530 0 l 5
 590 0 l 5
 590 -125 l 5
 450 -125 l 5
 140 625 l 5
 80 625 l 5
 80 750 l 5
 220 750 l 5
EndSplineSet
Validated: 1
EndChar

StartChar: bracketright
Encoding: 93 93 61
Width: 600
GlyphClass: 2
Flags: W
HStem: -250 100<200 400> 650 100<200 400>
VStem: 400 120<-150 650>
LayerCount: 2
Fore
SplineSet
520 -250 m 1
 200 -250 l 5
 200 -150 l 5
 400 -150 l 1
 400 650 l 1
 200 650 l 5
 200 750 l 5
 520 750 l 1
 520 -250 l 1
EndSplineSet
Validated: 1
EndChar

StartChar: asciicircum
Encoding: 94 94 62
Width: 600
GlyphClass: 2
Flags: W
HStem: 394 331
LayerCount: 2
Fore
SplineSet
339 725 m 1
 566 490 l 1
 479 394 l 1
 300 596 l 1
 123 394 l 1
 34 490 l 1
 261 725 l 1
 339 725 l 1
EndSplineSet
Validated: 1
EndChar

StartChar: underscore
Encoding: 95 95 63
Width: 600
GlyphClass: 2
Flags: W
HStem: -20 60<60 540>
LayerCount: 2
Fore
SplineSet
540 40 m 1
 540 -20 l 1
 60 -20 l 1
 60 40 l 1
 540 40 l 1
EndSplineSet
Validated: 1
EndChar

StartChar: grave
Encoding: 96 96 64
Width: 600
GlyphClass: 2
Flags: W
HStem: 445 305<360 480>
LayerCount: 2
Fore
SplineSet
480 750 m 5
 480 445 l 5
 360 445 l 5
 100 750 l 5
 480 750 l 5
EndSplineSet
Validated: 1
EndChar

StartChar: a
Encoding: 97 97 65
Width: 600
GlyphClass: 2
Flags: W
HStem: 0 100<200 395> 210 80<230 395> 380 100<120 375>
VStem: 50 150<100 180> 395 150<100 210 290 360>
LayerCount: 2
Fore
SplineSet
395 210 m 1
 230 210 l 1
 200 180 l 1
 200 100 l 1
 395 100 l 1
 395 210 l 1
545 0 m 25
 150 0 l 25
 50 100 l 25
 50 190 l 25
 150 290 l 25
 395 290 l 25
 395 360 l 25
 375 380 l 25
 120 380 l 25
 120 480 l 17
 445 480 l 1
 545 380 l 1
 545 0 l 25
EndSplineSet
Validated: 1
EndChar

StartChar: b
Encoding: 98 98 66
Width: 600
GlyphClass: 2
Flags: W
HStem: 0 100<205 355> 380 100<255 365> 660 20G<55 205>
VStem: 55 150<100 360 460 680> 395 150<140 350>
LayerCount: 2
Fore
SplineSet
545 370 m 25
 545 100 l 25
 445 0 l 17
 115 0 l 1
 55 60 l 9
 55 680 l 25
 205 680 l 29
 205 460 l 25
 255 480 l 25
 435 480 l 25
 545 370 l 25
365 380 m 25
 255 380 l 25
 205 360 l 25
 205 100 l 25
 355 100 l 25
 395 140 l 25
 395 350 l 25
 365 380 l 25
EndSplineSet
Validated: 1
EndChar

StartChar: c
Encoding: 99 99 67
Width: 600
GlyphClass: 2
Flags: W
HStem: 0 100<245 520> 380 100<245 520>
VStem: 60 155<130 350>
LayerCount: 2
Fore
SplineSet
170 0 m 1
 60 100 l 1
 60 380 l 1
 170 480 l 1
 520 480 l 1
 520 380 l 1
 245 380 l 1
 215 350 l 1
 215 130 l 1
 245 100 l 1
 520 100 l 1
 520 0 l 1
 170 0 l 1
EndSplineSet
Validated: 1
EndChar

StartChar: d
Encoding: 100 100 68
Width: 600
GlyphClass: 2
Flags: W
HStem: 0 100<225 395> 380 100<235 395> 660 20G<395 545>
VStem: 55 150<120 350> 395 150<100 380 480 680>
LayerCount: 2
Fore
SplineSet
55 380 m 25
 155 480 l 25
 395 480 l 25
 395 680 l 25
 545 680 l 25
 545 0 l 25
 155 0 l 25
 55 100 l 25
 55 380 l 25
205 350 m 25
 205 120 l 17
 225 100 l 1
 395 100 l 9
 395 380 l 25
 235 380 l 25
 205 350 l 25
EndSplineSet
Validated: 1
EndChar

StartChar: e
Encoding: 101 101 69
Width: 600
GlyphClass: 2
Flags: W
HStem: 0 100<225 465> 200 80<205 410> 380 100<235 380>
VStem: 55 150<120 200 280 350> 410 135<280 350>
CounterMasks: 1 e0
LayerCount: 2
Fore
SplineSet
165 0 m 1
 55 110 l 1
 55 380 l 1
 155 480 l 1
 445 480 l 1
 545 380 l 1
 545 200 l 1
 205 200 l 1
 205 120 l 1
 225 100 l 1
 465 100 l 9
 465 0 l 17
 165 0 l 1
410 280 m 9
 410 350 l 17
 380 380 l 1
 235 380 l 1
 205 350 l 1
 205 280 l 1
 410 280 l 9
EndSplineSet
Validated: 1
EndChar

StartChar: f
Encoding: 102 102 70
Width: 600
GlyphClass: 2
Flags: W
HStem: 0 21G<100 250> 300 100<250 520> 570 100<310 540>
VStem: 100 150<0 300 400 510>
LayerCount: 2
Fore
SplineSet
540 570 m 5
 310 570 l 1
 250 510 l 1
 250 400 l 1
 520 400 l 5
 520 300 l 5
 250 300 l 1
 250 0 l 1
 100 0 l 1
 100 530 l 1
 240 670 l 1
 540 670 l 5
 540 570 l 5
EndSplineSet
Validated: 1
EndChar

StartChar: g
Encoding: 103 103 71
Width: 600
GlyphClass: 2
Flags: W
HStem: -160 100<60 370> 40 88<235 390> 392 88<245 390>
VStem: 60 150<153 357> 390 150<128 392> 400 140<-30 40>
LayerCount: 2
Fore
SplineSet
390 392 m 25xf8
 245 392 l 25
 210 357 l 25
 210 153 l 25
 235 128 l 25
 390 128 l 25
 390 392 l 25xf8
540 -60 m 25xf4
 440 -160 l 25
 60 -160 l 25
 60 -60 l 25
 370 -60 l 25
 400 -30 l 25
 400 40 l 25
 170 40 l 1
 60 150 l 1
 60 375 l 1
 110 445 l 1
 190 480 l 1
 540 480 l 25
 540 -60 l 25xf4
EndSplineSet
Validated: 1
EndChar

StartChar: h
Encoding: 104 104 72
Width: 600
GlyphClass: 2
InSpiro: 1
Flags: W
HStem: 0 21G<55 205 395 545> 385 95<265 355> 660 20G<55 205>
VStem: 55 150<0 365 460 680> 395 150<0 345>
LayerCount: 2
Fore
SplineSet
545 380 m 0
 545 0 l 0
 395 0 l 0
 395 345 l 0
 355 385 l 0
 265 385 l 0
 205 365 l 0
 205 0 l 0
 55 0 l 0
 55 680 l 0
 205 680 l 0
 205 460 l 0
 265 480 l 0
 445 480 l 0
 545 380 l 0
  Spiro
    545 380 v
    545 0 v
    395 0 v
    395 345 v
    355 385 v
    265 385 v
    205 365 v
    205 0 v
    55 0 v
    55 680 v
    205 680 v
    205 460 v
    265 480 v
    445 480 v
    0 0 z
  EndSpiro
EndSplineSet
Validated: 1
EndChar

StartChar: i
Encoding: 105 105 73
Width: 600
GlyphClass: 2
Flags: W
HStem: 0 80<100 250 400 550> 395 85<80 250> 585 150<250 400>
VStem: 250 150<80 395 585 735>
LayerCount: 2
Fore
SplineSet
250 735 m 1
 400 735 l 1
 400 585 l 1
 250 585 l 1
 250 735 l 1
550 0 m 1
 100 0 l 1
 100 80 l 1
 250 80 l 1
 250 395 l 1
 80 395 l 1
 80 480 l 1
 400 480 l 1
 400 80 l 1
 550 80 l 1
 550 0 l 1
EndSplineSet
Validated: 1
EndChar

StartChar: j
Encoding: 106 106 74
Width: 600
GlyphClass: 2
Flags: W
HStem: -140 100<100 320> 395 85<80 370>
VStem: 370 150<10 395>
LayerCount: 2
Fore
SplineSet
370 10 m 29
 370 395 l 25
 80 395 l 25
 80 480 l 25
 520 480 l 25
 520 -15 l 25
 395 -140 l 25
 100 -140 l 25
 100 -40 l 29
 320 -40 l 29
 370 10 l 29
EndSplineSet
Validated: 1
EndChar

StartChar: k
Encoding: 107 107 75
Width: 600
GlyphClass: 2
Flags: W
HStem: 0 21G<55 205 389.048 590> 460 20G<402.8 580> 660 20G<55 205>
VStem: 55 150<0 120 230 680>
LayerCount: 2
Fore
SplineSet
55 680 m 25
 205 680 l 25
 205 230 l 25
 420 480 l 25
 580 480 l 25
 395 290 l 25
 590 0 l 25
 400 0 l 25
 285 210 l 25
 205 120 l 25
 205 0 l 25
 55 0 l 25
 55 680 l 25
  Spiro
    55 680 o
    205 680 o
    205 230 o
    420 480 o
    580 480 o
    395 290 o
    590 0 o
    400 0 o
    285 210 o
    205 120 o
    205 0 o
    55 0 o
    0 0 z
  EndSpiro
EndSplineSet
Validated: 1
EndChar

StartChar: l
Encoding: 108 108 76
Width: 600
GlyphClass: 2
Flags: W
HStem: 0 85<100 250 400 550> 600 80<125 250>
VStem: 250 150<85 600>
LayerCount: 2
Fore
SplineSet
100 0 m 1
 100 85 l 1
 250 85 l 1
 250 600 l 1
 125 600 l 1
 125 680 l 1
 400 680 l 1
 400 85 l 1
 550 85 l 1
 550 0 l 1
 100 0 l 1
EndSplineSet
Validated: 1
EndChar

StartChar: m
Encoding: 109 109 77
Width: 600
GlyphClass: 2
Flags: W
HStem: 0 21G<50 200 260 340 400 550> 392 88<200 260 340 400>
VStem: 50 150<0 392> 260 80<0 392> 400 150<0 392>
CounterMasks: 1 38
LayerCount: 2
Fore
SplineSet
260 0 m 1
 260 392 l 1
 200 392 l 1
 200 0 l 1
 50 0 l 1
 50 420 l 1
 130 480 l 1
 470 480 l 1
 550 420 l 1
 550 0 l 1
 400 0 l 1
 400 392 l 1
 340 392 l 5
 340 0 l 5
 260 0 l 1
EndSplineSet
Validated: 1
EndChar

StartChar: n
Encoding: 110 110 78
Width: 600
GlyphClass: 2
Flags: W
HStem: 0 21G<55 205 395 545> 380 100<205 345>
VStem: 55 150<0 380> 395 150<0 330>
LayerCount: 2
Fore
SplineSet
545 370 m 25
 545 0 l 25
 395 0 l 25
 395 330 l 25
 345 380 l 25
 205 380 l 25
 205 0 l 25
 55 0 l 25
 55 480 l 25
 435 480 l 25
 545 370 l 25
EndSplineSet
Validated: 1
EndChar

StartChar: o
Encoding: 111 111 79
Width: 600
GlyphClass: 2
Flags: W
HStem: 0 100<230 368> 380 100<230 368>
VStem: 60 150<120 360> 388 150<120 360>
LayerCount: 2
Fore
SplineSet
230 380 m 17
 210 360 l 1
 210 120 l 1
 230 100 l 9
 368 100 l 17
 388 120 l 1
 388 360 l 1
 368 380 l 9
 230 380 l 17
408 480 m 1
 492 431 l 1
 540 370 l 1
 538 110 l 1
 494 46 l 1
 408 0 l 1
 190 0 l 1
 104 46 l 1
 60 110 l 1
 60 370 l 1
 104 431 l 1
 190 480 l 1
 408 480 l 1
EndSplineSet
Validated: 1
EndChar

StartChar: p
Encoding: 112 112 80
Width: 600
GlyphClass: 2
Flags: W
HStem: 20 100<205 360> 380 100<205 370>
VStem: 55 150<-160 20 120 380> 395 150<155 355>
LayerCount: 2
Fore
SplineSet
545 130 m 1
 435 20 l 1
 205 20 l 1
 205 -160 l 1
 55 -160 l 1
 55 480 l 1
 445 480 l 1
 545 380 l 1
 545 130 l 1
395 155 m 1
 395 355 l 1
 370 380 l 1
 205 380 l 1
 205 120 l 1
 360 120 l 1
 395 155 l 1
EndSplineSet
Validated: 1
EndChar

StartChar: q
Encoding: 113 113 81
Width: 600
GlyphClass: 2
Flags: W
HStem: 20 88<260 390> 380 100<235 370>
VStem: 60 150<158 355> 390 150<-160 20 108 360>
LayerCount: 2
Fore
SplineSet
60 140 m 1
 60 380 l 1
 160 480 l 1
 460 480 l 1
 540 400 l 1
 540 -160 l 1
 390 -160 l 1
 390 20 l 1
 180 20 l 1
 60 140 l 1
210 158 m 1
 260 108 l 1
 390 108 l 1
 390 360 l 1
 370 380 l 1
 235 380 l 1
 210 355 l 5
 210 158 l 1
EndSplineSet
Validated: 1
EndChar

StartChar: r
Encoding: 114 114 82
Width: 600
GlyphClass: 2
Flags: W
HStem: 0 21G<80 230> 370 110<280 540>
VStem: 80 150<0 340>
LayerCount: 2
Fore
SplineSet
280 370 m 17
 230 340 l 5
 230 0 l 9
 80 0 l 17
 80 400 l 1
 180 400 l 1
 180 480 l 1
 540 480 l 1
 540 370 l 1
 280 370 l 17
EndSplineSet
Validated: 1
EndChar

StartChar: s
Encoding: 115 115 83
Width: 600
GlyphClass: 2
Flags: W
HStem: 0 100<60 375> 205 100<225 375> 380 100<225 540>
LayerCount: 2
Fore
SplineSet
540 480 m 1
 540 380 l 1
 225 380 l 1
 205 360 l 1
 205 325 l 1
 225 305 l 1
 420 305 l 1
 540 205 l 1
 540 80 l 1
 440 0 l 1
 60 0 l 1
 60 100 l 1
 375 100 l 1
 395 120 l 1
 395 185 l 1
 375 205 l 1
 180 205 l 1
 60 305 l 1
 60 405 l 1
 135 480 l 1
 540 480 l 1
  Spiro
    540 480 v
    540 380 v
    225 380 v
    205 360 v
    205 325 v
    225 305 v
    420 305 v
    540 205 v
    540 80 v
    440 0 v
    60 0 v
    60 100 v
    375 100 v
    395 120 v
    395 185 v
    375 205 v
    180 205 v
    60 305 v
    60 405 v
    135 480 v
    0 0 z
  EndSpiro
EndSplineSet
Validated: 1
EndChar

StartChar: t
Encoding: 116 116 84
Width: 600
GlyphClass: 2
Flags: W
HStem: 0 100<315 390> 380 100<310 550> 395 85<50 150> 660 20G<160 310>
VStem: 150 150<115 380> 160 150<490 680>
LayerCount: 2
Fore
SplineSet
390 100 m 25xd8
 390 120 l 25
 540 120 l 25
 540 50 l 25
 490 0 l 25
 230 0 l 25
 150 80 l 25
 150 395 l 25
 50 395 l 25
 50 480 l 25
 150 480 l 25xb8
 160 490 l 25
 160 680 l 25
 310 680 l 29
 310 480 l 25xd4
 550 480 l 25
 550 380 l 25
 300 380 l 25
 300 115 l 25
 315 100 l 25
 390 100 l 25xd8
EndSplineSet
Validated: 1
EndChar

StartChar: u
Encoding: 117 117 85
Width: 600
GlyphClass: 2
Flags: W
HStem: 0 100<245 395> 460 20G<55 205 395 545>
VStem: 55 150<140 480> 395 150<100 480>
LayerCount: 2
Fore
SplineSet
545 0 m 1
 165 0 l 1
 55 110 l 1
 55 480 l 1
 205 480 l 1
 205 140 l 5
 245 100 l 1
 395 100 l 1
 395 480 l 1
 545 480 l 1
 545 0 l 1
EndSplineSet
Validated: 1
EndChar

StartChar: v
Encoding: 118 118 86
Width: 600
GlyphClass: 2
Flags: W
HStem: 0 110<210 390> 460 20G<20 197.027 442.973 580>
LayerCount: 2
Fore
SplineSet
390 0 m 1
 210 0 l 1
 20 480 l 1
 190 480 l 1
 320 110 l 1
 450 480 l 1
 580 480 l 1
 390 0 l 1
EndSplineSet
Validated: 1
EndChar

StartChar: w
Encoding: 119 119 87
Width: 600
GlyphClass: 2
Flags: W
HStem: 0 85<200 260 340 400> 460 20G<50 200 260 340 400 550>
VStem: 50 150<85 480> 260 80<85 480> 400 150<85 480>
CounterMasks: 1 38
LayerCount: 2
Fore
SplineSet
50 480 m 1
 200 480 l 1
 200 85 l 1
 260 85 l 9
 260 480 l 25
 340 480 l 25
 340 85 l 17
 400 85 l 1
 400 480 l 1
 550 480 l 1
 550 80 l 1
 490 80 l 1
 490 0 l 1
 110 0 l 1
 110 80 l 1
 50 80 l 1
 50 480 l 1
EndSplineSet
Validated: 1
EndChar

StartChar: x
Encoding: 120 120 88
Width: 600
GlyphClass: 2
Flags: W
HStem: 0 21G<50 200 390 540> 460 20G<60 210 400 550>
LayerCount: 2
Fore
SplineSet
550 480 m 1
 550 470 l 1
 390 260 l 1
 540 100 l 1
 540 0 l 1
 390 0 l 1
 390 40 l 1
 290 150 l 1
 200 30 l 1
 200 0 l 1
 50 0 l 1
 50 10 l 1
 220 220 l 1
 60 400 l 1
 60 480 l 1
 210 480 l 1
 210 460 l 1
 320 330 l 1
 400 450 l 1
 400 480 l 1
 550 480 l 1
EndSplineSet
Validated: 1
EndChar

StartChar: y
Encoding: 121 121 89
Width: 600
GlyphClass: 2
Flags: W
HStem: -170 100<130 175> 460 20G<5 154.355 411.613 595>
LayerCount: 2
Fore
SplineSet
145 480 m 25
 290 170 l 25
 420 480 l 25
 595 480 l 1
 285 -170 l 1
 130 -170 l 25
 130 -70 l 25
 175 -70 l 25
 223 55 l 25
 5 480 l 25
 145 480 l 25
EndSplineSet
Validated: 1
EndChar

StartChar: z
Encoding: 122 122 90
Width: 600
GlyphClass: 2
Flags: W
HStem: 0 100<220 530> 380 100<70 380>
LayerCount: 2
Fore
SplineSet
70 480 m 1
 455 480 l 1
 530 405 l 1
 530 310 l 1
 220 105 l 1
 220 100 l 1
 530 100 l 1
 530 0 l 1
 145 0 l 1
 70 75 l 1
 70 170 l 1
 380 373 l 1
 380 380 l 1
 70 380 l 1
 70 480 l 1
EndSplineSet
Validated: 1
EndChar

StartChar: braceleft
Encoding: 123 123 91
Width: 600
GlyphClass: 2
Flags: W
HStem: -250 100<388 520> 650 100<390 520>
VStem: 240 120<-120 10 490 620>
LayerCount: 2
Fore
SplineSet
520 -150 m 29
 520 -250 l 29
 325 -250 l 29
 240 -165 l 29
 240 10 l 5
 80 170 l 5
 20 170 l 5
 20 330 l 5
 80 330 l 5
 240 490 l 5
 240 665 l 29
 325 750 l 29
 520 750 l 29
 520 650 l 29
 390 650 l 29
 360 620 l 29
 360 440 l 5
 170 260 l 5
 170 240 l 5
 360 50 l 29
 360 -120 l 29
 388 -150 l 29
 520 -150 l 29
EndSplineSet
Validated: 1
EndChar

StartChar: bar
Encoding: 124 124 92
Width: 600
GlyphClass: 2
Flags: W
VStem: 225 150<-210 205 285 700>
LayerCount: 2
Fore
SplineSet
375 205 m 1
 375 -210 l 1
 225 -210 l 1
 225 205 l 1
 375 205 l 1
375 700 m 1
 375 285 l 1
 225 285 l 1
 225 700 l 1
 375 700 l 1
EndSplineSet
Validated: 1
EndChar

StartChar: braceright
Encoding: 125 125 93
Width: 600
GlyphClass: 2
Flags: W
HStem: -250 100<80 212> 650 100<80 210>
VStem: 240 120<-120 10 490 620>
LayerCount: 2
Fore
SplineSet
80 -150 m 25
 212 -150 l 25
 240 -120 l 25
 240 50 l 25
 430 240 l 1
 430 260 l 1
 240 440 l 1
 240 620 l 25
 210 650 l 25
 80 650 l 25
 80 750 l 25
 275 750 l 25
 360 665 l 25
 360 490 l 1
 520 330 l 1
 580 330 l 1
 580 170 l 1
 520 170 l 1
 360 10 l 1
 360 -165 l 25
 275 -250 l 25
 80 -250 l 25
 80 -150 l 25
EndSplineSet
Validated: 1
EndChar

StartChar: asciitilde
Encoding: 126 126 94
Width: 600
GlyphClass: 2
Flags: W
HStem: 84 130<402 472> 284 130<134 204>
LayerCount: 2
Fore
SplineSet
522 264 m 5
 582 154 l 5
 512 84 l 5
 356 84 l 5
 204 284 l 5
 134 284 l 5
 84 234 l 5
 18 344 l 5
 88 414 l 5
 250 414 l 5
 402 214 l 5
 472 214 l 5
 522 264 l 5
EndSplineSet
Validated: 1
EndChar
